PathFileType	4	(X/Y/Z)	Patient4_TMGait_0pt6_02_left_04.trc.trc
DataRate	CameraRate	NumFrames	NumMarkers	Units	OrigDataRate	OrigDataStartFrame	OrigNumFrames
80.924855491330	80.924855491330	6	33	mm	80.924855491330	1	       141
Frame#	Time	Sacral			L.Shoulder			Chest			R.Shoulder			Neck			R.ASIS			L.ASIS			R.Thigh.Superior			R.Thigh.Lateral			R.Thigh.Inferior			R.Patella			L.Thigh.Superior			L.Thigh.Lateral			L.Thigh.Inferior			L.Patella			L.Shank.Superior			L.Shank.Lateral			L.Shank.Inferior			R.Shank.Superior			R.Shank.Lateral			R.Shank.Inferior			R.Heel			R.Midfoot.Superior			R.Midfoot.Lateral			R.Toe			L.Heel			L.Midfoot.Lateral			L.Midfoot.Superior			L.Toe			L.Elbow			L.Wrist			R.Elbow			R.Wrist			
		X1	Y1	Z1	X2	Y2	Z2	X3	Y3	Z3	X4	Y4	Z4	X5	Y5	Z5	X6	Y6	Z6	X7	Y7	Z7	X8	Y8	Z8	X9	Y9	Z9	X10	Y10	Z10	X11	Y11	Z11	X12	Y12	Z12	X13	Y13	Z13	X14	Y14	Z14	X15	Y15	Z15	X16	Y16	Z16	X17	Y17	Z17	X18	Y18	Z18	X19	Y19	Z19	X20	Y20	Z20	X21	Y21	Z21	X22	Y22	Z22	X23	Y23	Z23	X24	Y24	Z24	X25	Y25	Z25	X26	Y26	Z26	X27	Y27	Z27	X28	Y28	Z28	X29	Y29	Z29	X30	Y30	Z30	X31	Y31	Z31	X32	Y32	Z32	X33	Y33	Z33	

1	4.820000000000	704.247034549500	1015.709338162474	544.285010859607	881.385216286037	1438.998537859688	357.818255031020	993.929372735423	1364.927233040603	510.306783597856	924.836286606523	1441.541588106578	689.177868895042	892.132277103421	1499.535055466147	508.933275593166	932.324342439268	945.249874189778	652.776932666391	909.499154921520	967.505673836482	379.813410797222	962.253331623476	739.486053726324	621.935679162600	874.463423538359	634.654095382276	677.838565441049	948.467591211066	580.604503886472	596.470683304308	944.127739376839	495.304322666501	598.019565451335	1001.574423763713	801.412681876738	409.010887059817	972.180417064823	675.067951546153	324.287781608559	1081.531713804609	621.636082631010	385.573466565483	1105.392843154531	534.383591871573	374.846668776186	1048.854931416306	460.121974173389	366.134534684136	915.228151700430	395.127396285355	319.402969987987	928.295156636165	263.018133933978	369.016907062516	919.563813124877	407.199574485686	602.077513209580	851.182946178685	299.861850791487	659.635673558698	895.594243077174	208.445535161099	593.080894634887	764.501132537686	42.786551638001	558.370560164159	936.621565332611	97.132490490708	591.414818928216	849.099492599767	36.718174578045	631.568459464430	1057.493959915293	42.349219017567	615.973065147463	752.957560641120	170.491525161952	410.604417046929	812.554810510333	131.235886378796	328.419995033842	916.898052642452	152.129519825523	345.202013700582	1006.519409932293	49.225924978889	314.917654479704	805.121724993853	1086.758581512848	257.863821567627	838.324941304062	829.648985801360	239.428955102903	947.724119491118	1104.307089410717	829.816634745800	1181.901230596954	1007.748108151296	790.284561850796	
2	4.832357142857	702.992630040073	1016.129449345384	545.718829823455	880.073763667075	1439.407851476490	359.318179427078	993.257638052439	1364.607846439700	510.927928592031	925.638943268744	1441.150588104153	690.362766448503	891.661305916565	1499.492501241265	510.549129414728	931.097820606303	944.908950895064	653.102716244332	907.551847552867	967.650563155071	380.256715428243	958.912409184104	738.821216523634	621.762010083097	870.600395867211	634.563798318275	678.353427635220	943.451596565652	579.844482408392	596.549835827692	938.547292459927	494.793089862167	598.376066595380	999.559501155584	802.477583897502	410.050267710368	971.609973920188	675.959147215505	325.122298161408	1080.242458272439	623.038983891454	387.481614962449	1105.574928495875	537.573029749045	376.416012092987	1053.039030322212	462.523977118095	366.864288290672	924.948736544215	389.728655060909	319.315634936153	946.632478970067	259.227911377706	368.518396679467	913.524055758862	406.858889706603	602.370639334860	844.651177164396	299.840054387332	659.958640577323	888.409916519046	208.236477563057	593.209002609291	756.638645087650	42.871999285698	558.392875577315	928.812355569776	97.053850022041	591.501377893050	841.240317152525	36.698645200439	631.529962527977	1049.639814980410	42.132019869328	616.054884554595	779.309332544264	154.963340029843	409.371488164533	840.972161457006	121.162098018034	326.946873564333	942.776295718507	149.041546983130	344.219878343815	1038.749087529856	53.832591573487	313.258784847936	797.795511101374	1088.970921145894	258.901779180474	826.583555917555	831.392620349827	241.336868670858	955.432338704994	1104.637029951534	829.708467771081	1192.385360834126	1021.949794532452	786.851294043173	
3	4.844714285714	701.764765429857	1016.529200686450	547.117229964919	878.789214693555	1439.814579055879	360.790605035803	992.592405691658	1364.286598395895	511.533838494223	926.408733642852	1440.744054032258	691.520853381566	891.194109403342	1499.441883916128	512.140582247370	929.896228418453	944.580513298820	653.417240715813	905.642970592692	967.772721335179	380.667632449571	955.636414195848	738.166204089864	621.635439134276	866.768767968172	634.472656452334	678.866753216630	938.525223355261	579.097513521000	596.678690388977	933.043646739831	494.282864339862	598.754774441714	997.487021953398	803.385566150172	411.046895079169	970.869922673232	676.716337169696	325.899574194431	1078.756313213614	624.236981958985	389.339535992341	1105.527457351518	540.594786014222	377.971971109706	1056.993358739687	464.837398761551	367.617204819420	934.619033708351	384.368294871523	319.127717263134	964.763779718091	255.604054488754	368.056077472760	907.557774099924	406.517452793886	602.669976276055	838.182080448576	299.821850265178	660.283651388185	881.308492681496	208.033093434190	593.348420742947	748.852501143926	42.958109734655	558.418369549812	921.081650832863	96.977932145623	591.589279789187	833.457523120492	36.677725665613	631.490398268258	1041.860800518113	41.916497963656	616.136673599751	805.553111155441	139.814531795021	408.005619751380	869.315972118263	111.437591878438	325.475733169373	968.443350195569	146.208823169063	343.357212032783	1070.638673911122	58.735101146835	311.973019716317	790.601768046845	1091.179917803994	259.930105054055	815.069705697169	833.148541762875	243.232027266012	963.028137158936	1104.954757953362	829.531687713973	1202.564070826264	1035.991077641065	783.383729656791	
4	4.857071428571	700.586789132967	1016.886594737887	548.436643926735	877.552695668945	1440.213437976406	362.204802183588	991.933991684671	1363.962787153650	512.109878811391	927.103035891370	1440.309885036078	692.623909313062	890.723590022670	1499.375470035785	513.680351252251	928.743231532722	944.274792823540	653.706485532283	903.811849470480	967.849266940317	381.014733605678	952.476474708822	737.529153865459	621.589176038559	862.988083803183	634.383623562851	679.370544065993	933.751785121606	578.374999644094	596.891568769090	927.666945052782	493.773947101677	599.169172454965	995.314652796407	803.991904678509	411.947462663482	969.798690062663	677.210811122804	326.564341407289	1076.904716415119	625.040088282840	391.074426254333	1105.043588754051	543.287371204532	379.478583234933	1060.497235086558	466.976478802584	368.390669522235	944.135862972291	379.093775029851	318.783191654750	982.447775528360	252.312446829796	367.665220231044	901.708003604797	406.177313496876	602.979977292118	831.802887206746	299.815636837535	660.608776865199	874.330397505816	207.842636890760	593.507823208662	741.173058338303	43.050294930257	558.450837645315	913.463058516987	96.907644669262	591.680873375257	825.780779537448	36.655682631833	631.448906458104	1034.186419028151	41.703297190348	616.218493772292	831.518912923511	125.445115664357	406.469752735595	897.407027505115	102.403068810752	324.052840942967	993.623234506241	143.868600010182	342.712333237893	1101.766790650800	64.170554432943	311.325918081276	783.671875966898	1093.374012310946	260.934551077017	803.997173450273	834.919273684008	245.107460821639	970.406642276632	1105.249916763698	829.198067358848	1212.147708825132	1049.718720141461	779.835711499491	
5	4.869428571429	699.474337130433	1017.184136959860	549.638583375329	876.379926181257	1440.598660327941	363.535215882955	991.280617642472	1363.636357047031	512.645586636057	927.683426865594	1439.840629992553	693.649662103018	890.239952640391	1499.287325952331	515.145846363523	927.656325738786	943.999277530148	653.958182078166	902.088695369345	967.861613952941	381.275523701264	949.465955672499	736.916037038275	621.646188272931	859.266279302083	634.300348000610	679.856150426009	929.167548606603	577.684194241226	597.209137446354	922.443924753574	493.266039606226	599.627241226910	993.012009008237	804.179450809087	412.704755546306	968.266526974593	677.340897224503	327.066246430266	1074.562181888891	625.299643995692	392.614451808750	1103.959403858562	545.521640811983	380.902257356347	1063.376258675893	468.875973822822	369.174251736372	953.401748319552	373.953551382873	318.254297321604	999.482367488017	249.494673574782	367.375444493764	895.994034739446	405.841379029884	603.303971881739	825.517697011472	299.830507209409	660.931848533135	867.486455702621	207.671208712353	593.693193398829	733.602370002046	43.154643401482	558.492986916312	905.960784569144	96.844781356682	591.777216694807	818.211461587768	36.633559795040	631.405767040131	1026.618315009277	41.492748176309	616.300578198321	857.058260185511	112.192460591525	404.769376589377	925.077101654373	94.339425803284	322.736512198824	1018.079526310663	142.216733451947	342.360813222837	1131.774023054334	70.323718092066	311.506716484042	777.109836357533	1095.540794878340	261.902238317280	793.526056408477	836.702482053118	246.961348495453	977.490685046299	1105.515741197306	828.628715161893	1220.914642842763	1063.016950785265	776.163998968124	
6	4.881785714286	698.435977325166	1017.409711573225	550.690877718686	875.280895047198	1440.963553328414	364.761248093711	990.629211953447	1363.308632507666	513.134466696458	928.118308339114	1439.335125176348	694.581748440390	889.731550428313	1499.174058464127	516.518299249389	926.647132911034	943.758238544821	654.162299778428	900.494938482898	967.797237173779	381.438422979573	946.621952326105	736.330958590516	621.814678709378	855.605777521763	634.226953620534	680.313468120442	924.785645974158	577.029178536299	597.634299418297	917.383443892728	492.759188660143	600.128547049163	990.570806290260	803.873308821308	413.280776767166	966.194755922721	677.043222079157	327.366878487197	1071.668248585890	624.926202038146	393.893356460647	1102.177498979738	547.211032994852	382.211044716702	1065.517090676971	470.493643569763	369.947427059564	962.310565483843	369.000777280088	317.550312995428	1015.687985373242	247.254165132114	367.207734099008	890.418218869744	405.513834631661	603.642788074869	819.317121503881	299.875500454328	661.249541012359	860.767480205109	207.523537481109	593.906450553871	726.125122969296	43.277769036029	558.546275439847	898.560654621828	96.790185156435	591.878167963394	810.733774081017	36.613329494049	631.362348541003	1019.141371324944	41.285070954584	616.383164486542	882.000398247749	100.317981363970	402.964332313977	952.117818079211	87.447558687793	321.596396775273	1041.583810293740	141.382833943354	342.344662559211	1160.332510349943	77.282778254009	312.592761196703	770.993578207841	1097.662951202904	262.820242093904	783.765978129546	838.486758318211	248.793446141298	984.224828028697	1105.749045319496	827.762407491370	1228.719187763888	1075.793461521751	772.339543696917	
